HIERARCHY
ROOT root
{
	OFFSET	0	13.1	24.9
	CHANNELS 6  Xposition Yposition Zposition Xrotation Yrotation Zrotation
	JOINT spine_1
	{
		OFFSET	0	9.99999	0
		CHANNELS 3  Xrotation Yrotation Zrotation
		JOINT spine_2
		{
			OFFSET	0	112	-10
			CHANNELS 3  Xrotation Yrotation Zrotation
			JOINT spine_3
			{
				OFFSET	0	206.5	19.3
				CHANNELS 3  Xrotation Yrotation Zrotation
				JOINT spine_4
				{
					OFFSET	0	110.4	14.6
					CHANNELS 3  Xrotation Yrotation Zrotation
					JOINT neck_1
					{
						OFFSET	0	71.8	-50.3
						CHANNELS 3  Xrotation Yrotation Zrotation
						JOINT neck_2
						{
							OFFSET	0	86.2	-25.8
							CHANNELS 3  Xrotation Yrotation Zrotation
							JOINT head_ee
							{
								OFFSET	0	179.8	-8.7
								CHANNELS 3  Xrotation Yrotation Zrotation
								End Site
								{
									OFFSET	1	0	0
								}
							}
						}
					}
					JOINT left_clavicle
					{
						OFFSET	-43.2	22.4	-70.8
						CHANNELS 3  Xrotation Yrotation Zrotation
						JOINT left_shoulder
						{
							OFFSET	-93.9	-5.79999	48.7
							CHANNELS 3  Xrotation Yrotation Zrotation
							JOINT left_elbow
							{
								OFFSET	-291.4	-30.8	15.2
								CHANNELS 3  Xrotation Yrotation Zrotation
								JOINT left_lowarm_twist
								{
									OFFSET	-110.7	-3.89999	13.6
									CHANNELS 3  Xrotation Yrotation Zrotation
									JOINT left_hand
									{
										OFFSET	-110.7	-3.89999	13.6
										CHANNELS 3  Xrotation Yrotation Zrotation
										JOINT left_ee
										{
											OFFSET	-80.8	-5.10001	12.1
											CHANNELS 3  Xrotation Yrotation Zrotation
											End Site
											{
												OFFSET	1	0	0
											}
										}
									}
								}
							}
						}
					}
					JOINT right_clavicle
					{
						OFFSET	43.2	22.4	-70.8
						CHANNELS 3  Xrotation Yrotation Zrotation
						JOINT right_shoulder
						{
							OFFSET	93.9	-5.79999	48.7
							CHANNELS 3  Xrotation Yrotation Zrotation
							JOINT right_elbow
							{
								OFFSET	291.4	-30.8	15.2
								CHANNELS 3  Xrotation Yrotation Zrotation
								JOINT right_lowarm_twist
								{
									OFFSET	110.7	-3.89999	13.6
									CHANNELS 3  Xrotation Yrotation Zrotation
									JOINT right_hand
									{
										OFFSET	110.7	-3.89999	13.6
										CHANNELS 3  Xrotation Yrotation Zrotation
										JOINT right_ee
										{
											OFFSET	80.8	-5.10001	12.1
											CHANNELS 3  Xrotation Yrotation Zrotation
											End Site
											{
												OFFSET	1	0	0
											}
										}
									}
								}
							}
						}
					}
				}
			}
		}
	}
	JOINT left_hip
	{
		OFFSET	-82.8	-127.5	0.300001
		CHANNELS 3  Xrotation Yrotation Zrotation
		JOINT left_knee
		{
			OFFSET	-28.2	-396.7	2.2
			CHANNELS 3  Xrotation Yrotation Zrotation
			JOINT left_ankle
			{
				OFFSET	-11.7	-411.3	35.4
				CHANNELS 3  Xrotation Yrotation Zrotation
				JOINT left_toes
				{
					OFFSET	0	-60	-88.6
					CHANNELS 3  Xrotation Yrotation Zrotation
					JOINT left_foot_ee
					{
						OFFSET	-22.5	-16.5	-42.2
						CHANNELS 3  Xrotation Yrotation Zrotation
						End Site
						{
							OFFSET	1	0	0
						}
					}
				}
			}
		}
	}
	JOINT right_hip
	{
		OFFSET	82.8	-127.5	0.300001
		CHANNELS 3  Xrotation Yrotation Zrotation
		JOINT right_knee
		{
			OFFSET	28.2	-396.7	2.2
			CHANNELS 3  Xrotation Yrotation Zrotation
			JOINT right_ankle
			{
				OFFSET	11.7	-411.3	35.4
				CHANNELS 3  Xrotation Yrotation Zrotation
				JOINT right_toes
				{
					OFFSET	0	-60	-88.6
					CHANNELS 3  Xrotation Yrotation Zrotation
					JOINT right_foot_ee
					{
						OFFSET	22.5	-16.5	-42.2
						CHANNELS 3  Xrotation Yrotation Zrotation
						End Site
						{
							OFFSET	1	0	0
						}
					}
				}
			}
		}
	}
}
MOTION
Frames: 8
Frame Time: 0.02
2800.94 716.97 -1473.77 -4.61985085401 87.7128741372 2.16943180047 2.61251 -0.0624215 0.0348571 2.61251 -0.0645131 0.0308144 2.61248 -0.0687211 0.0197198 2.61248 -0.0647443 0.0303256 -15.6882 8.35632 1.49545 -15.9007 15.1396 4.31062 -0.0 0.0 -0.0 9.2105 5.32821 17.7621 -11.8701 -29.0434 41.6443 3.89578 -62.5906 2.36881 0.0866032 0.00304355 -0.0106415 -2.74042 11.387 -12.8193 -0.0 0.0 -0.0 3.44549 2.33845 -6.4984 -33.0683 21.5019 -67.9406 0.615972 16.9689 -0.0918874 -24.8611 1.50311 -2.77565 1.37474 -1.11419 -9.66993 0.0 0.0 0.0 -6.23853 -2.55313 5.21182 -24.2612 0.220769 3.68881 39.4546 17.5635 -4.92669 -7.08909 0.0 0.0 -0.0 0.0 -0.0 32.4779 30.6859 2.46064 -10.2335 -0.284207 -1.54272 -13.1 -16.5269 -1.97851 -15.4105 0.0 0.0 0.0 0.0 0.0 
2742.8505023 728.697 -1489.97287496 -178.754913008 88.0453718686 175.41509341 2.51351 -0.244768 0.359389 2.51354 -0.267141 0.343086 2.51192 -0.320726 0.29361 2.5119 -0.270331 0.340578 -14.3061 8.44945 1.73226 -14.4794 15.0881 4.37242 -0.0 0.0 -0.0 8.69763 6.28629 16.7128 -17.2669 -26.839 43.7168 3.78103 -61.8856 2.26726 0.482968 0.0167664 -0.0594033 -2.61219 11.3126 -12.0219 -0.0 0.0 -0.0 3.7635 2.60438 -7.11031 -31.3832 21.8285 -68.2595 0.664353 18.2165 -0.106511 -24.9858 1.51358 -2.78773 1.55033 -0.664822 -10.68 0.0 0.0 0.0 -8.36482 -2.65008 4.60549 -25.892 0.179367 3.93563 38.2252 17.7332 -4.81493 -7.0864 0.0 0.0 -0.0 0.0 -0.0 30.4004 30.9871 3.40417 -13.922 -0.318521 -2.10752 -16.0965 -15.6927 -2.43282 -15.5777 0.0 0.0 0.0 0.0 0.0 
2743.18314875 728.697 -1491.12134098 -177.028860255 89.1807210521 173.688619629 2.51351 -0.244768 0.359389 2.51354 -0.267141 0.343086 2.51192 -0.320726 0.29361 2.5119 -0.270331 0.340578 -14.3061 8.44945 1.73226 -14.4794 15.0881 4.37242 -0.0 0.0 -0.0 8.69763 6.28629 16.7128 -17.2669 -26.839 43.7168 3.78103 -61.8856 2.26726 0.482968 0.0167664 -0.0594033 -2.61219 11.3126 -12.0219 -0.0 0.0 -0.0 3.7635 2.60438 -7.11031 -31.3832 21.8285 -68.2595 0.664353 18.2165 -0.106511 -24.9858 1.51358 -2.78773 1.55033 -0.664822 -10.68 0.0 0.0 0.0 -8.36482 -2.65008 4.60549 -25.892 0.179367 3.93563 38.2252 17.7332 -4.81493 -7.0864 0.0 0.0 -0.0 0.0 -0.0 30.4004 30.9871 3.40417 -13.922 -0.318521 -2.10752 -16.0965 -15.6927 -2.43282 -15.5777 0.0 0.0 0.0 0.0 0.0 
2721.62459047 744.97 -1500.9314732 -178.851986469 87.86456498 175.476468863 2.53691 -0.151097 0.483479 2.53702 -0.181556 0.472885 2.53548 -0.257861 0.435994 2.53527 -0.185769 0.471246 -13.0238 8.41839 1.38488 -13.1692 15.1518 3.85887 -0.0 0.0 -0.0 8.09468 6.94016 15.5333 -21.1572 -25.4645 44.5723 3.62127 -60.8468 2.12704 0.685498 0.0236482 -0.0843547 -2.56461 11.3143 -11.7114 -0.0 0.0 -0.0 4.2253 2.80593 -8.01459 -29.9626 22.1457 -68.578 0.671918 18.41 -0.108889 -24.9712 1.51235 -2.78632 1.56937 -0.733748 -10.8369 0.0 0.0 0.0 -7.6364 -2.52512 4.51974 -25.965 0.17735 3.94665 37.9598 17.9643 -4.79398 -7.26293 0.0 0.0 -0.0 0.0 -0.0 28.447 30.823 3.38664 -15.1801 -0.321901 -2.30052 -16.4767 -14.8535 -2.48677 -15.4006 0.0 0.0 0.0 0.0 0.0 
2722.13611807 744.97 -1502.38167608 -177.740279471 88.9151053331 174.36436949 2.53691 -0.151097 0.483479 2.53702 -0.181556 0.472885 2.53548 -0.257861 0.435994 2.53527 -0.185769 0.471246 -13.0238 8.41839 1.38488 -13.1692 15.1518 3.85887 -0.0 0.0 -0.0 8.09468 6.94016 15.5333 -21.1572 -25.4645 44.5723 3.62127 -60.8468 2.12704 0.685498 0.0236482 -0.0843547 -2.56461 11.3143 -11.7114 -0.0 0.0 -0.0 4.2253 2.80593 -8.01459 -29.9626 22.1457 -68.578 0.671918 18.41 -0.108889 -24.9712 1.51235 -2.78632 1.56937 -0.733748 -10.8369 0.0 0.0 0.0 -7.6364 -2.52512 4.51974 -25.965 0.17735 3.94665 37.9598 17.9643 -4.79398 -7.26293 0.0 0.0 -0.0 0.0 -0.0 28.447 30.823 3.38664 -15.1801 -0.321901 -2.30052 -16.4767 -14.8535 -2.48677 -15.4006 0.0 0.0 0.0 0.0 0.0 
2699.76497699 745.121 -1508.39260307 127.228357283 89.5043528436 -131.398874061 2.5349 -0.0766477 0.649791 2.53513 -0.117839 0.643597 2.53375 -0.223521 0.614934 2.53324 -0.1236 0.642516 -11.3879 8.318 0.703717 -11.4977 15.2841 2.95804 -0.0 0.0 -0.0 7.77771 5.52973 14.9981 -23.8798 -24.5524 45.1999 3.24999 -58.1409 1.80706 1.44097 0.0485375 -0.177635 -2.54409 11.5872 -11.4377 -0.0 0.0 -0.0 4.32318 3.01873 -8.19806 -29.7657 23.1352 -67.7383 0.67338 18.4474 -0.10935 -25.4067 1.5491 -2.82832 1.61712 -0.914051 -11.2333 0.0 0.0 0.0 -7.12487 -2.47013 4.29129 -26.052 0.174926 3.95979 37.8167 18.6125 -4.79276 -7.41528 0.0 0.0 -0.0 0.0 -0.0 27.0653 30.7126 3.31965 -16.0921 -0.321701 -2.44045 -16.6445 -13.1036 -2.50534 -15.2704 0.0 0.0 0.0 0.0 0.0 
2680.58089245 742.992 -1515.25956927 59.9306616812 88.8521825684 -64.5523343997 2.53133 -0.0185079 0.732875 2.53163 -0.0651039 0.730213 2.53073 -0.186004 0.709121 2.53004 -0.0716804 0.729596 -9.57839 8.01811 -0.0406707 -9.64044 15.099 1.91824 -0.0 0.0 -0.0 7.55961 4.58201 14.6147 -26.0806 -23.8594 45.6892 2.85373 -54.7145 1.47676 2.34462 0.0766892 -0.289625 -2.5309 11.7855 -11.2504 -0.0 0.0 -0.0 4.60057 3.1431 -8.74465 -29.2219 24.8622 -67.4028 0.691016 18.8966 -0.114997 -25.9314 1.5938 -2.87856 1.73554 -1.4816 -12.2644 0.0 0.0 0.0 -6.59138 -2.47064 4.48575 -26.1479 0.172232 3.97426 38.0833 19.6941 -4.84077 -7.52001 0.0 0.0 -0.0 0.0 -0.0 25.8411 30.5233 2.625 -15.4638 -0.322077 -2.34405 -14.0729 -10.5138 -2.10878 -14.5985 0.0 0.0 0.0 0.0 0.0 
2681.07455659 742.992 -1516.66492517 38.5775653712 88.4069154881 -43.1934264887 2.53133 -0.0185079 0.732875 2.53163 -0.0651039 0.730213 2.53073 -0.186004 0.709121 2.53004 -0.0716804 0.729596 -9.57839 8.01811 -0.0406707 -9.64044 15.099 1.91824 -0.0 0.0 -0.0 7.55961 4.58201 14.6147 -26.0806 -23.8594 45.6892 2.85373 -54.7145 1.47676 2.34462 0.0766892 -0.289625 -2.5309 11.7855 -11.2504 -0.0 0.0 -0.0 4.60057 3.1431 -8.74465 -29.2219 24.8622 -67.4028 0.691016 18.8966 -0.114997 -25.9314 1.5938 -2.87856 1.73554 -1.4816 -12.2644 0.0 0.0 0.0 -6.59138 -2.47064 4.48575 -26.1479 0.172232 3.97426 38.0833 19.6941 -4.84077 -7.52001 0.0 0.0 -0.0 0.0 -0.0 25.8411 30.5233 2.625 -15.4638 -0.322077 -2.34405 -14.0729 -10.5138 -2.10878 -14.5985 0.0 0.0 0.0 0.0 0.0 
